<svg xmlns="http://www.w3.org/2000/svg" viewBox="0 0 85.6 74.67"><title>account_icon</title><g id="レイヤー_2" data-name="レイヤー 2"><g id="レイヤー_1-2" data-name="レイヤー 1"><path d="M42.76,18.53H11.16C4,18.54,0,22.28,0,29.1V64.52c0,6.11,4.19,10.13,10.65,10.13q32.19,0,64.39,0c6.43,0,10.56-4.05,10.56-10.22V28.82c0-6.42-4-10.27-10.85-10.28Q58.76,18.51,42.76,18.53Zm0,5.77q16,0,32,0c3.34,0,4.77,1.35,4.77,4.51q0,17.71,0,35.44c0,3.23-1.49,4.66-4.88,4.66q-31.9,0-63.83,0C7.5,68.91,6,67.48,6,64.24Q6,46.62,6,29c0-3.41,1.36-4.69,5-4.69Q26.91,24.28,42.8,24.3Z"/><path d="M42.2,0c-2.8,0-5.6,0-8.4,0-6,.09-10.17,4.08-10.27,9.74a11,11,0,0,0,0,1.15c.13,1.17-.62,2.84.36,3.43,1.36.81,3.24.26,4.89.26.77,0,.73-.61.74-1.11,0-1.27-.05-2.55,0-3.81.17-2.45,1.65-3.87,4.24-3.9q8.4-.09,16.8,0c2.59,0,4.07,1.45,4.24,3.91.08,1.26,0,2.54,0,3.81,0,.51,0,1.09.74,1.1,1.47,0,2.94,0,4.4,0,.71,0,.86-.48.85-1a48.69,48.69,0,0,0-.11-5.13C60.17,3.59,56.17.18,51,0,48.07,0,45.14,0,42.2,0Z"/><path d="M67.63,46.48c0-5.33,0-10.65,0-16,0-1.21-.32-1.63-1.66-1.63-4.41,0-4.41-.07-4.41,4.14,0,9.82,0,19.65,0,29.48,0,1.38.32,1.88,1.86,1.86,4.21,0,4.21,0,4.21-4Z"/><path d="M18.36,46.68c0,5.26,0,10.53,0,15.79,0,1.34.26,1.9,1.84,1.88,4.23,0,4.23,0,4.23-3.95,0-9.83,0-19.66,0-29.49,0-1.53-.32-2.1-2.05-2.05-4,.1-4,0-4,3.93Z"/></g></g></svg>