<svg xmlns="http://www.w3.org/2000/svg" viewBox="0 0 82.92 104.06"><title>craft_icon</title><g id="レイヤー_2" data-name="レイヤー 2"><g id="レイヤー_1-2" data-name="レイヤー 1"><path d="M60.08,6.48c-.15.7-.79.71-1.29.88-4.18,1.42-8.34,2.89-12.56,4.2-1.78.56-3.11,1.43-3.62,3.27-1,3.48-3.25,5.61-6.41,7.23-4.07,2.08-8,4.53-11.93,6.81-1,.56-1.87,1.3-3.06.16-.77-.74-1.48.27-2.12.64-.88.5-.26,1.15.08,1.64.95,1.39.4,2.2-.91,2.91-2.08,1.13-4.14,2.31-6.16,3.56-1.3.8-2.2.72-3-.69Q4.8,29.51.4,22c-.75-1.29-.42-2.09.83-2.77,2.08-1.14,4.14-2.32,6.16-3.55,1.36-.84,2.41-.91,3.17.74.21.47.51,1.19,1.25.76s1.89-.49,1.65-1.5c-.41-1.74.83-2.11,1.86-2.7,6-3.49,12.15-6.78,18-10.5A15.8,15.8,0,0,1,46.24.59,57,57,0,0,1,58.79,5.42C59.27,5.67,59.89,5.82,60.08,6.48Z"/><path d="M82.91,92.9c.08,1.42-.81,1.89-1.67,2.39-4.68,2.69-9.39,5.32-14,8.12-2,1.2-3,.69-4.09-1.19Q53.09,84.64,42.92,67.14c-2-3.54-4-7.11-6.15-10.62-1-1.63-.69-2.65,1-3.58Q45,48.85,52.18,44.6c1.63-1,2.66-.58,3.59,1Q69,68.61,82.25,91.55C82.54,92,82.75,92.57,82.91,92.9Zm-30.53-43c-.21.1-.44.19-.65.31-3,1.72-5.93,3.48-8.93,5.15-1.17.64-.59,1.28-.19,2Q54.08,77.22,65.54,97.12c.65,1.13,1.21,1.25,2.29.59,2.66-1.62,5.34-3.18,8.08-4.67,1.12-.61,1.23-1.15.59-2.25Q65,70.94,53.53,51.05C53.26,50.59,53.13,49.94,52.38,49.91Z"/><path d="M39,24.32c.59,0,.72.51.94.9,3.07,5.29,6.12,10.6,9.21,15.88.49.83.32,1.26-.5,1.72q-5.43,3.07-10.8,6.25c-.86.51-1.29.21-1.73-.55q-4.56-8-9.17-15.9c-.39-.69-.44-1.18.31-1.62l11.24-6.47A4.2,4.2,0,0,1,39,24.32Z"/></g></g></svg>