<svg xmlns="http://www.w3.org/2000/svg" viewBox="0 0 88.33 99.98"><title>creative_icon</title><g id="レイヤー_2" data-name="レイヤー 2"><g id="レイヤー_1-2" data-name="レイヤー 1"><path d="M2.6,100C.37,100-.5,98.64.28,96.31,2.63,89.24,5.12,82.22,7.4,75.14a16.58,16.58,0,0,1,4.31-6.9c17.56-17.45,35-35,52.57-52.47,1.35-1.34,1.62-2.15,0-3.48a43.36,43.36,0,0,1-5.16-5.16c-1.37-1.64-2.2-1.21-3.48.1C51.19,11.87,46.57,16.39,42,21c-1.21,1.2-2.54,2.3-4.08.78s-.44-2.86.77-4.07c5.48-5.44,11-10.88,16.38-16.38,1.63-1.66,3-1.78,4.68-.09q13.5,13.56,27.07,27.06c2,2,2,2.86,0,4.82q-28.47,28.5-57,57a6.4,6.4,0,0,1-2.49,1.62L3.88,99.64C3.4,99.8,2.91,99.9,2.6,100ZM54.17,59.13c-.29-.36-.48-.63-.7-.85-3.91-3.92-7.85-7.82-11.73-11.76-1-1-1.44-.26-2,.34Q27.53,59.06,15.32,71.23c-.85.84-1.14,1.41-.11,2.41,3.79,3.68,7.51,7.43,11.2,11.21.86.88,1.35.84,2.2,0Q40.83,72.5,53.15,60.25C53.49,59.91,53.8,59.54,54.17,59.13ZM82.38,30.52a9.36,9.36,0,0,0-.61-.72C77.92,25.94,74,22.12,70.23,18.21c-1-1.07-1.53-.37-2.2.3Q56.75,29.82,45.43,41.09c-1,1-1.06,1.59,0,2.6Q50.93,49,56.27,54.53c.95,1,1.53,1.14,2.57.07C66.33,47,73.89,39.52,81.41,32,81.81,31.58,82.36,31.26,82.38,30.52ZM11.68,77.14C9.81,82.71,8,88.16,6,94l16.85-5.75Z"/></g></g></svg>