<svg xmlns="http://www.w3.org/2000/svg" viewBox="0 0 570.84 92.58"><defs><style>.cls-1{fill:#595656;}.cls-2{fill:#00348b;}</style></defs><title>footer_logo</title><g id="レイヤー_2" data-name="レイヤー 2"><g id="レイヤー_1-2" data-name="レイヤー 1"><path class="cls-1" d="M421.93,44.7a5.79,5.79,0,0,1,2.17,1.62,7.43,7.43,0,0,1,1.17,2,6.69,6.69,0,0,1,.43,2.45,6.93,6.93,0,0,1-.84,3.25,4.62,4.62,0,0,1-2.75,2.26,4.27,4.27,0,0,1,2.27,1.84,7.58,7.58,0,0,1,.67,3.63v1.56a12.25,12.25,0,0,0,.13,2.16,2,2,0,0,0,.9,1.32v.58h-5.36c-.15-.51-.25-.93-.31-1.24a11,11,0,0,1-.21-2l0-2.16a4.38,4.38,0,0,0-.77-3,3.87,3.87,0,0,0-2.76-.74H411.9v9.1h-4.74V44.1h11.1A10.07,10.07,0,0,1,421.93,44.7Zm-10,3.43v6.24h5.22a5.45,5.45,0,0,0,2.34-.38,2.61,2.61,0,0,0,1.37-2.61,2.94,2.94,0,0,0-1.33-2.84,4.87,4.87,0,0,0-2.25-.41Z"/><path class="cls-1" d="M451.39,48.21H439.1v4.93h11.28v4H439.1v6H452v4.17h-17.6V44.1h17Z"/><path class="cls-1" d="M461.83,46.53A9.53,9.53,0,0,1,469,43.66q5.79,0,8.48,3.84A8.44,8.44,0,0,1,479,51.83h-4.85A6.73,6.73,0,0,0,473,49.31a4.83,4.83,0,0,0-3.85-1.51,4.74,4.74,0,0,0-4.09,2.14,10.46,10.46,0,0,0-1.49,6c0,2.6.52,4.55,1.58,5.85a4.94,4.94,0,0,0,4,2A4.57,4.57,0,0,0,473,62.11a7.43,7.43,0,0,0,1.2-2.7H479a10.45,10.45,0,0,1-3.19,6.18A9.26,9.26,0,0,1,469.23,68a9.84,9.84,0,0,1-7.79-3.22q-2.83-3.22-2.84-8.85Q458.6,49.83,461.83,46.53Z"/><path class="cls-1" d="M501.67,44.7a5.79,5.79,0,0,1,2.17,1.62,7.43,7.43,0,0,1,1.17,2,6.49,6.49,0,0,1,.43,2.45,7,7,0,0,1-.83,3.25,4.67,4.67,0,0,1-2.76,2.26,4.27,4.27,0,0,1,2.27,1.84,7.58,7.58,0,0,1,.67,3.63v1.56a12.25,12.25,0,0,0,.13,2.16,2,2,0,0,0,.9,1.32v.58h-5.36c-.15-.51-.25-.93-.31-1.24a11,11,0,0,1-.21-2l0-2.16a4.38,4.38,0,0,0-.77-3,3.87,3.87,0,0,0-2.76-.74h-4.74v9.1H486.9V44.1H498A10.07,10.07,0,0,1,501.67,44.7Zm-10,3.43v6.24h5.22A5.45,5.45,0,0,0,499.2,54a2.61,2.61,0,0,0,1.37-2.61,2.94,2.94,0,0,0-1.33-2.84,4.86,4.86,0,0,0-2.24-.41Z"/><path class="cls-1" d="M514,44.1h4.93V58.36a8,8,0,0,0,.57,3.5c.58,1.3,1.86,2,3.83,2s3.22-.65,3.81-2a8,8,0,0,0,.57-3.5V44.1h4.93V58.37a12.06,12.06,0,0,1-1.15,5.77q-2.15,3.78-8.16,3.78t-8.18-3.78A11.94,11.94,0,0,1,514,58.37Z"/><path class="cls-1" d="M545.56,67.32h-4.82V44.1h4.82Z"/><path class="cls-1" d="M570.84,44.1v4.11H563.9V67.32H559V48.21h-7V44.1Z"/><polygon class="cls-2" points="8.44 92.25 8.44 81.04 0.32 81.04 0.34 78.69 19.5 78.69 19.5 81.04 11.4 81.04 11.4 92.25 8.44 92.25"/><polygon class="cls-2" points="42.69 92.25 42.69 86.33 30.29 86.33 30.29 92.25 27.39 92.25 27.39 78.69 30.29 78.69 30.29 84.06 42.69 84.06 42.69 78.69 45.59 78.69 45.59 92.25 42.69 92.25"/><rect class="cls-2" x="54.79" y="78.69" width="2.96" height="13.56"/><polygon class="cls-2" points="82.52 92.25 69.77 81.59 69.77 92.25 66.93 92.25 66.93 78.69 70.3 78.69 82.29 88.69 82.29 78.69 85.13 78.69 85.13 92.25 82.52 92.25"/><polygon class="cls-2" points="108.37 92.25 99.96 85.61 97.12 87.33 97.12 92.25 94.23 92.25 94.23 78.69 97.12 78.69 97.12 85.03 107.57 78.69 111.39 78.69 102.19 84.25 112.31 92.25 108.37 92.25"/><polygon class="cls-2" points="140.44 92.25 140.44 87.31 131.43 78.69 134.91 78.69 141.98 85.46 149.05 78.69 152.34 78.69 143.34 87.29 143.34 92.25 140.44 92.25"/><path class="cls-2" d="M169.93,92.58c-7.16,0-10.8-1.1-10.8-7.11s3.81-7.19,10.84-7.19,10.85,1.14,10.85,7.15S177,92.58,169.93,92.58Zm0-11.87c-5.09,0-7.53.2-7.53,4.72,0,4.36,2.19,4.79,7.57,4.79s7.6-.4,7.6-4.75S175.36,80.71,169.93,80.71Z"/><path class="cls-2" d="M198,92.56c-6.46,0-9.1-1.43-9.1-5V78.69h3V87c0,2.65,2.27,3.16,6.17,3.16,4.08,0,6.16-.48,6.16-3.13V78.69H207v8.87C207,91.12,204.39,92.56,198,92.56Z"/><path class="cls-2" d="M230.69,92.25l-5.45-4.63h-6.47v4.63H215.9V78.69h11.67c4.15,0,5.77,1.25,5.77,4.46,0,2.47-1.34,3.77-4.2,4.1l-.72.09,5.78,4.91Zm-11.92-6.6h8.55c1.91,0,3.07-.16,3.07-2.36s-1.18-2.36-3.11-2.36h-8.51Z"/><polygon class="cls-2" points="262.19 92.35 253.64 78.69 256.89 78.69 264.18 90.37 271.49 78.69 274.49 78.69 265.93 92.35 262.19 92.35"/><rect class="cls-2" x="282.17" y="78.69" width="2.95" height="13.56"/><path class="cls-2" d="M302.89,92.51a40.34,40.34,0,0,1-8.95-.84l.45-2.06a46,46,0,0,0,8.5.91c5.37,0,6.17-.26,6.17-2s-1.11-1.81-6.41-1.94c-7.23-.18-8.69-.88-8.69-4.14,0-3,1.31-4.09,8.66-4.09a42.41,42.41,0,0,1,8.66.84l-.46,2.06a51.6,51.6,0,0,0-8.2-.84c-4.28,0-5.63.09-5.63,1.81s1,1.85,6,2c7.6.17,9.14.88,9.14,4.2S310.91,92.51,302.89,92.51Z"/><rect class="cls-2" x="320.66" y="78.69" width="2.96" height="13.56"/><path class="cls-2" d="M342.73,92.58c-7.17,0-10.8-1.1-10.8-7.11s3.81-7.19,10.84-7.19,10.85,1.14,10.85,7.15S349.79,92.58,342.73,92.58Zm0-11.87c-5.08,0-7.53.2-7.53,4.72,0,4.36,2.19,4.79,7.57,4.79s7.61-.4,7.61-4.75S348.16,80.71,342.73,80.71Z"/><polygon class="cls-2" points="377.44 92.25 364.69 81.59 364.69 92.25 361.86 92.25 361.86 78.69 365.22 78.69 377.22 88.69 377.22 78.69 380.06 78.69 380.06 92.25 377.44 92.25"/><path class="cls-2" d="M87.67,22.12H55.42c-1.73,0-5,1.09-6.06,6.2s-3.46,14.17-5,19.91-3.46,7.18-11.47,7.18H0V65.2H32.93c7.11,0,10.9-.12,12.89-7.6,1.33-5,6.14-23.34,6.76-25.66.94-3.45,1.35-6.44,4.56-6.44H87.67Z"/><path class="cls-2" d="M87.67,13.18H54.93c-4.59,0-7.34.11-9.16,7S44.12,26.42,43,30.59c-3.67,13.87-3.67,15.12-10.1,15.12H0v6.78H32.92c8.95-.12,7.92-.12,12.85-17.78,3.7-13.22,2.75-14.89,8.82-14.89H87.67Z"/><path class="cls-2" d="M87.67,0H53.09c-5.14,0-8.92,3-10,6.76-1.09,4-6.28,25.24-7.08,28s-1.34,5.77-3.14,5.77H0v2.75H32.91c3.12,0,4.38-1.11,5.52-5.24s4.7-16.6,6-21.41S49,11,50.93,11H87.67Z"/><rect class="cls-2" x="368.65" y="25.94" width="10.76" height="39.26"/><path class="cls-2" d="M171.94,48.62h37.57a2.66,2.66,0,0,1,2.78,2.44v13H223V25.58H212.29V38.24c0,1.7-1.58,2.6-3.14,2.6H171.94Z"/><rect class="cls-2" x="159.89" y="25.58" width="9.6" height="38.48"/><path class="cls-2" d="M89.44,64.06h51.07c3.81,0,11.44-1.66,11.44-10.93,0-6.62-4.93-12.27-11.57-12.27l-38,0c-3.26,0-3.89-2.08-3.89-3.35s.5-4,3.89-4h48.76v-8H102.42c-6.26,0-12.44,5.11-12.44,12,0,4.62,1.43,11.81,12.44,11.81h38c1.17,0,2.91,1.77,2.91,3.55,0,1.26-1,3.94-2.78,3.94H89.44Z"/><path class="cls-2" d="M311.87,65.2h49.58V56.65H311.87c-2-.23-2.36-1-2.36-2.81V52.06c0-1.24.45-2.61,2.36-2.61h49.58V40.91H311.87a2.21,2.21,0,0,1-2.36-2c0-1.46-.05-1.92-.05-3.31,0-1.73.77-2.3,2.41-2.3h49.58V25.94H311.87c-9.48,0-12,5.51-12,7.33V56.65c0,3.83,5,8.55,12,8.55"/><path class="cls-2" d="M281.87,25.84c-2.43,0-1.91,0-1.91,0H241.61s.53,0-1.91,0c-4.92,0-10,4.69-10,7.66V56.57c0,3,2.67,8.42,9.85,8.42,2.45,0,1.91,0,1.91,0h38.63A16,16,0,0,0,282,65c7.18,0,9.85-5.43,9.85-8.42V33.5c0-3-5.08-7.66-10-7.66m1,26.12a4.63,4.63,0,0,1-4.49,4.61H243.2A4.63,4.63,0,0,1,238.71,52V38.12a4.63,4.63,0,0,1,4.49-4.62h35.17a4.63,4.63,0,0,1,4.49,4.62Z"/></g></g></svg>