<svg xmlns="http://www.w3.org/2000/svg" viewBox="0 0 347.95 33.84"><defs><style>.cls-1{fill:none;}</style></defs><title>jobtitle_bg</title><g id="レイヤー_2" data-name="レイヤー 2"><g id="レイヤー_1-2" data-name="レイヤー 1"><path class="cls-1" d="M348,32.21V14a2.88,2.88,0,1,1,0-5.76V0H338.7a2.89,2.89,0,0,1-2.76,2.1A2.87,2.87,0,0,1,333.18,0H315.84a2.87,2.87,0,0,1-2.76,2.1A2.87,2.87,0,0,1,310.32,0H294.17a2.88,2.88,0,0,1-2.76,2.1A2.87,2.87,0,0,1,288.65,0H272.49a2.87,2.87,0,0,1-2.76,2.1A2.89,2.89,0,0,1,267,0H250.82a2.87,2.87,0,0,1-2.76,2.1A2.87,2.87,0,0,1,245.3,0H229.15a2.87,2.87,0,0,1-2.76,2.1A2.87,2.87,0,0,1,223.63,0H207.48a2.89,2.89,0,0,1-2.76,2.1A2.87,2.87,0,0,1,202,0H185.8A2.87,2.87,0,0,1,183,2.1,2.88,2.88,0,0,1,180.28,0H164.13a2.87,2.87,0,0,1-2.76,2.1A2.87,2.87,0,0,1,158.61,0H142.46a2.87,2.87,0,0,1-2.76,2.1A2.87,2.87,0,0,1,136.94,0H120.79A2.89,2.89,0,0,1,118,2.1,2.87,2.87,0,0,1,115.27,0H99.11a2.87,2.87,0,0,1-2.76,2.1A2.87,2.87,0,0,1,93.59,0H77.44a2.87,2.87,0,0,1-2.76,2.1A2.87,2.87,0,0,1,71.92,0H55.77A2.87,2.87,0,0,1,53,2.1,2.87,2.87,0,0,1,50.25,0H34.09a2.87,2.87,0,0,1-2.76,2.1A2.86,2.86,0,0,1,28.58,0H12.42A2.87,2.87,0,0,1,9.66,2.1,2.87,2.87,0,0,1,6.9,0H0V8.26a2.88,2.88,0,0,1,2.88,2.88A2.88,2.88,0,0,1,0,14V32.21a2.86,2.86,0,0,1,2.58,1.63H19.09a2.86,2.86,0,0,1,5.17,0h16.5a2.86,2.86,0,0,1,5.17,0h16.5a2.86,2.86,0,0,1,5.17,0H84.11a2.86,2.86,0,0,1,5.16,0h16.51a2.86,2.86,0,0,1,5.17,0h16.5a2.86,2.86,0,0,1,5.17,0h16.5a2.86,2.86,0,0,1,5.17,0H170.8a2.86,2.86,0,0,1,5.16,0h16.51a2.86,2.86,0,0,1,5.17,0h16.5a2.86,2.86,0,0,1,5.17,0h16.51a2.86,2.86,0,0,1,5.16,0h16.51a2.86,2.86,0,0,1,5.17,0h16.5a2.86,2.86,0,0,1,5.17,0h16.5a2.86,2.86,0,0,1,5.17,0h17.69a2.86,2.86,0,0,1,5.17,0h16.5A2.89,2.89,0,0,1,348,32.21ZM9.66,26.05a2.88,2.88,0,1,1,2.88-2.88A2.88,2.88,0,0,1,9.66,26.05Zm12-12a2.88,2.88,0,1,1,2.88-2.88A2.88,2.88,0,0,1,21.67,14Zm9.66,12a2.88,2.88,0,1,1,2.89-2.88A2.87,2.87,0,0,1,31.33,26.05Zm12-12a2.88,2.88,0,1,1,2.88-2.88A2.87,2.87,0,0,1,43.35,14Zm9.66,12a2.88,2.88,0,1,1,2.88-2.88A2.88,2.88,0,0,1,53,26.05ZM65,14a2.88,2.88,0,1,1,2.88-2.88A2.88,2.88,0,0,1,65,14Zm9.66,12a2.88,2.88,0,1,1,2.88-2.88A2.88,2.88,0,0,1,74.68,26.05Zm12-12a2.88,2.88,0,1,1,2.88-2.88A2.88,2.88,0,0,1,86.69,14Zm9.66,12a2.88,2.88,0,1,1,2.88-2.88A2.88,2.88,0,0,1,96.35,26.05Zm12-12a2.88,2.88,0,1,1,2.88-2.88A2.88,2.88,0,0,1,108.36,14Zm9.67,12a2.88,2.88,0,1,1,2.88-2.88A2.88,2.88,0,0,1,118,26.05Zm12-12a2.88,2.88,0,1,1,2.88-2.88A2.88,2.88,0,0,1,130,14Zm9.66,12a2.88,2.88,0,1,1,2.88-2.88A2.88,2.88,0,0,1,139.7,26.05Zm12-12a2.88,2.88,0,1,1,2.88-2.88A2.88,2.88,0,0,1,151.71,14Zm9.66,12a2.88,2.88,0,1,1,2.88-2.88A2.88,2.88,0,0,1,161.37,26.05Zm12-12a2.88,2.88,0,1,1,2.88-2.88A2.88,2.88,0,0,1,173.38,14Zm9.66,12a2.88,2.88,0,1,1,2.88-2.88A2.88,2.88,0,0,1,183,26.05Zm12-12a2.88,2.88,0,1,1,2.88-2.88A2.88,2.88,0,0,1,195.05,14Zm9.67,12a2.88,2.88,0,1,1,2.88-2.88A2.88,2.88,0,0,1,204.72,26.05Zm12-12a2.88,2.88,0,1,1,2.88-2.88A2.88,2.88,0,0,1,216.73,14Zm9.66,12a2.88,2.88,0,1,1,2.88-2.88A2.88,2.88,0,0,1,226.39,26.05Zm12-12a2.88,2.88,0,1,1,2.88-2.88A2.88,2.88,0,0,1,238.4,14Zm9.66,12a2.88,2.88,0,1,1,2.88-2.88A2.88,2.88,0,0,1,248.06,26.05Zm12-12A2.88,2.88,0,1,1,263,11.14,2.88,2.88,0,0,1,260.07,14Zm9.66,12a2.88,2.88,0,1,1,2.88-2.88A2.88,2.88,0,0,1,269.73,26.05Zm12-12a2.88,2.88,0,1,1,2.88-2.88A2.88,2.88,0,0,1,281.74,14Zm9.67,12a2.88,2.88,0,1,1,2.88-2.88A2.88,2.88,0,0,1,291.41,26.05Zm12-12a2.88,2.88,0,1,1,2.88-2.88A2.88,2.88,0,0,1,303.42,14Zm9.66,12A2.88,2.88,0,1,1,316,23.17,2.88,2.88,0,0,1,313.08,26.05Zm13.19-12a2.88,2.88,0,1,1,2.88-2.88A2.88,2.88,0,0,1,326.27,14Zm9.67,12a2.88,2.88,0,1,1,2.88-2.88A2.88,2.88,0,0,1,335.94,26.05Z"/><path d="M9.66,2.1A2.87,2.87,0,0,0,12.42,0H6.9A2.87,2.87,0,0,0,9.66,2.1Z"/><path d="M31.33,2.1A2.87,2.87,0,0,0,34.09,0H28.58A2.86,2.86,0,0,0,31.33,2.1Z"/><path d="M53,2.1A2.87,2.87,0,0,0,55.77,0H50.25A2.87,2.87,0,0,0,53,2.1Z"/><path d="M74.68,2.1A2.87,2.87,0,0,0,77.44,0H71.92A2.87,2.87,0,0,0,74.68,2.1Z"/><path d="M96.35,2.1A2.87,2.87,0,0,0,99.11,0H93.59A2.87,2.87,0,0,0,96.35,2.1Z"/><path d="M118,2.1A2.89,2.89,0,0,0,120.79,0h-5.52A2.87,2.87,0,0,0,118,2.1Z"/><path d="M139.7,2.1A2.87,2.87,0,0,0,142.46,0h-5.52A2.87,2.87,0,0,0,139.7,2.1Z"/><path d="M161.37,2.1A2.87,2.87,0,0,0,164.13,0h-5.52A2.87,2.87,0,0,0,161.37,2.1Z"/><path d="M183,2.1A2.87,2.87,0,0,0,185.8,0h-5.52A2.88,2.88,0,0,0,183,2.1Z"/><path d="M204.72,2.1A2.89,2.89,0,0,0,207.48,0H202A2.87,2.87,0,0,0,204.72,2.1Z"/><path d="M226.39,2.1A2.87,2.87,0,0,0,229.15,0h-5.52A2.87,2.87,0,0,0,226.39,2.1Z"/><path d="M248.06,2.1A2.87,2.87,0,0,0,250.82,0H245.3A2.87,2.87,0,0,0,248.06,2.1Z"/><path d="M269.73,2.1A2.87,2.87,0,0,0,272.49,0H267A2.89,2.89,0,0,0,269.73,2.1Z"/><path d="M291.41,2.1A2.88,2.88,0,0,0,294.17,0h-5.52A2.87,2.87,0,0,0,291.41,2.1Z"/><path d="M313.08,2.1A2.87,2.87,0,0,0,315.84,0h-5.52A2.87,2.87,0,0,0,313.08,2.1Z"/><path d="M335.94,2.1A2.89,2.89,0,0,0,338.7,0h-5.52A2.87,2.87,0,0,0,335.94,2.1Z"/><path d="M2.88,11.14A2.88,2.88,0,0,0,0,8.26V14A2.88,2.88,0,0,0,2.88,11.14Z"/><path d="M21.67,8.26a2.88,2.88,0,1,0,2.88,2.88A2.88,2.88,0,0,0,21.67,8.26Z"/><path d="M43.35,8.26a2.88,2.88,0,1,0,2.88,2.88A2.87,2.87,0,0,0,43.35,8.26Z"/><path d="M65,8.26a2.88,2.88,0,1,0,2.88,2.88A2.88,2.88,0,0,0,65,8.26Z"/><path d="M86.69,8.26a2.88,2.88,0,1,0,2.88,2.88A2.88,2.88,0,0,0,86.69,8.26Z"/><path d="M108.36,8.26a2.88,2.88,0,1,0,2.88,2.88A2.88,2.88,0,0,0,108.36,8.26Z"/><path d="M130,8.26a2.88,2.88,0,1,0,2.88,2.88A2.88,2.88,0,0,0,130,8.26Z"/><path d="M151.71,8.26a2.88,2.88,0,1,0,2.88,2.88A2.88,2.88,0,0,0,151.71,8.26Z"/><path d="M173.38,8.26a2.88,2.88,0,1,0,2.88,2.88A2.88,2.88,0,0,0,173.38,8.26Z"/><path d="M195.05,8.26a2.88,2.88,0,1,0,2.88,2.88A2.88,2.88,0,0,0,195.05,8.26Z"/><path d="M216.73,8.26a2.88,2.88,0,1,0,2.88,2.88A2.88,2.88,0,0,0,216.73,8.26Z"/><path d="M238.4,8.26a2.88,2.88,0,1,0,2.88,2.88A2.88,2.88,0,0,0,238.4,8.26Z"/><path d="M260.07,8.26A2.88,2.88,0,1,0,263,11.14,2.88,2.88,0,0,0,260.07,8.26Z"/><path d="M281.74,8.26a2.88,2.88,0,1,0,2.88,2.88A2.88,2.88,0,0,0,281.74,8.26Z"/><path d="M303.42,8.26a2.88,2.88,0,1,0,2.88,2.88A2.88,2.88,0,0,0,303.42,8.26Z"/><path d="M326.27,8.26a2.88,2.88,0,1,0,2.88,2.88A2.88,2.88,0,0,0,326.27,8.26Z"/><path d="M345.07,11.14A2.88,2.88,0,0,0,348,14V8.26A2.88,2.88,0,0,0,345.07,11.14Z"/><circle cx="9.66" cy="23.17" r="2.88"/><path d="M31.33,20.29a2.88,2.88,0,1,0,2.89,2.88A2.87,2.87,0,0,0,31.33,20.29Z"/><circle cx="53.01" cy="23.17" r="2.88"/><circle cx="74.68" cy="23.17" r="2.88"/><circle cx="96.35" cy="23.17" r="2.88"/><circle cx="118.03" cy="23.17" r="2.88"/><circle cx="139.7" cy="23.17" r="2.88"/><circle cx="161.37" cy="23.17" r="2.88"/><circle cx="183.04" cy="23.17" r="2.88"/><circle cx="204.72" cy="23.17" r="2.88"/><circle cx="226.39" cy="23.17" r="2.88"/><circle cx="248.06" cy="23.17" r="2.88"/><circle cx="269.73" cy="23.17" r="2.88"/><circle cx="291.41" cy="23.17" r="2.88"/><circle cx="313.08" cy="23.17" r="2.88"/><circle cx="335.94" cy="23.17" r="2.88"/><path d="M0,32.21v1.63H2.58A2.86,2.86,0,0,0,0,32.21Z"/><path d="M21.67,32.21a2.87,2.87,0,0,0-2.58,1.63h5.17A2.89,2.89,0,0,0,21.67,32.21Z"/><path d="M43.35,32.21a2.88,2.88,0,0,0-2.59,1.63h5.17A2.87,2.87,0,0,0,43.35,32.21Z"/><path d="M65,32.21a2.89,2.89,0,0,0-2.59,1.63H67.6A2.86,2.86,0,0,0,65,32.21Z"/><path d="M86.69,32.21a2.86,2.86,0,0,0-2.58,1.63h5.16A2.86,2.86,0,0,0,86.69,32.21Z"/><path d="M108.36,32.21a2.87,2.87,0,0,0-2.58,1.63H111A2.89,2.89,0,0,0,108.36,32.21Z"/><path d="M130,32.21a2.89,2.89,0,0,0-2.59,1.63h5.17A2.87,2.87,0,0,0,130,32.21Z"/><path d="M151.71,32.21a2.89,2.89,0,0,0-2.59,1.63h5.17A2.86,2.86,0,0,0,151.71,32.21Z"/><path d="M173.38,32.21a2.86,2.86,0,0,0-2.58,1.63H176A2.86,2.86,0,0,0,173.38,32.21Z"/><path d="M195.05,32.21a2.87,2.87,0,0,0-2.58,1.63h5.17A2.89,2.89,0,0,0,195.05,32.21Z"/><path d="M216.73,32.21a2.89,2.89,0,0,0-2.59,1.63h5.17A2.87,2.87,0,0,0,216.73,32.21Z"/><path d="M238.4,32.21a2.86,2.86,0,0,0-2.58,1.63H241A2.86,2.86,0,0,0,238.4,32.21Z"/><path d="M260.07,32.21a2.86,2.86,0,0,0-2.58,1.63h5.17A2.89,2.89,0,0,0,260.07,32.21Z"/><path d="M281.74,32.21a2.87,2.87,0,0,0-2.58,1.63h5.17A2.89,2.89,0,0,0,281.74,32.21Z"/><path d="M303.42,32.21a2.89,2.89,0,0,0-2.59,1.63H306A2.87,2.87,0,0,0,303.42,32.21Z"/><path d="M326.27,32.21a2.87,2.87,0,0,0-2.58,1.63h5.17A2.89,2.89,0,0,0,326.27,32.21Z"/><path d="M345.36,33.84H348V32.21A2.89,2.89,0,0,0,345.36,33.84Z"/></g></g></svg>